<svg aria-hidden="true" style="position:absolute;width:0;height:0;overflow:hidden" xmlns="http://www.w3.org/2000/svg"><defs><symbol id="icon-valid" viewBox="0 0 32 32"><path fill="green" style="fill:var(--color1, #008000)" d="m14.133 22.133 9.4-9.4-1.867-1.867-7.533 7.533-3.8-3.8-1.867 1.867 5.667 5.667zm1.867 7.2q-2.767 0-5.2-1.05t-4.233-2.85-2.85-4.233-1.05-5.2 1.05-5.2 2.85-4.233 4.233-2.85 5.2-1.05 5.2 1.05 4.233 2.85 2.85 4.233 1.05 5.2-1.05 5.2-2.85 4.233-4.233 2.85-5.2 1.05zm0-2.666q4.467 0 7.567-3.1t3.1-7.567-3.1-7.567T16 5.333t-7.567 3.1T5.333 16t3.1 7.567 7.567 3.1z"/></symbol><symbol id="icon-invalid" viewBox="0 0 32 32"><path fill="red" style="fill:var(--color2, #f00)" d="m11.2 22.667 4.8-4.8 4.8 4.8 1.867-1.867-4.8-4.8 4.8-4.8L20.8 9.333l-4.8 4.8-4.8-4.8L9.333 11.2l4.8 4.8-4.8 4.8 1.867 1.867zm4.8 6.666q-2.767 0-5.2-1.05t-4.233-2.85-2.85-4.233-1.05-5.2 1.05-5.2 2.85-4.233 4.233-2.85 5.2-1.05 5.2 1.05 4.233 2.85 2.85 4.233 1.05 5.2-1.05 5.2-2.85 4.233-4.233 2.85-5.2 1.05zm0-2.666q4.467 0 7.567-3.1t3.1-7.567-3.1-7.567T16 5.333t-7.567 3.1T5.333 16t3.1 7.567 7.567 3.1z"/></symbol></defs></svg>